<mxfile host="app.diagrams.net" modified="2023-01-31T17:00:27.233Z" agent="5.0 (Macintosh; Intel Mac OS X 10_15_7) AppleWebKit/605.1.15 (KHTML, like Gecko) Version/16.2 Safari/605.1.15" etag="2k4bAYmvwj3L0Idfwe20" version="20.8.13" type="github">
  <diagram name="페이지-1" id="kzrTbNwjVpUAAiW9tV3C">
    <mxGraphModel dx="1363" dy="765" grid="1" gridSize="10" guides="1" tooltips="1" connect="1" arrows="1" fold="1" page="1" pageScale="1" pageWidth="827" pageHeight="1169" math="0" shadow="0">
      <root>
        <mxCell id="0" />
        <mxCell id="1" parent="0" />
        <mxCell id="0ZVAY7hV2r7XPMm9iSAq-1" value="이용자&lt;br&gt;" style="shape=umlActor;verticalLabelPosition=bottom;verticalAlign=top;html=1;" vertex="1" parent="1">
          <mxGeometry x="30" y="300" width="40" height="70" as="geometry" />
        </mxCell>
        <mxCell id="0ZVAY7hV2r7XPMm9iSAq-6" value="게시판&amp;nbsp;서비스" style="shape=umlFrame;whiteSpace=wrap;html=1;width=106;height=30;fontStyle=1" vertex="1" parent="1">
          <mxGeometry x="114" y="120" width="626" height="610" as="geometry" />
        </mxCell>
        <mxCell id="0ZVAY7hV2r7XPMm9iSAq-7" style="edgeStyle=orthogonalEdgeStyle;rounded=0;orthogonalLoop=1;jettySize=auto;html=1;exitX=0.5;exitY=0.5;exitDx=0;exitDy=0;exitPerimeter=0;entryX=0.5;entryY=0.375;entryDx=0;entryDy=0;entryPerimeter=0;" edge="1" parent="1" source="0ZVAY7hV2r7XPMm9iSAq-1" target="0ZVAY7hV2r7XPMm9iSAq-1">
          <mxGeometry relative="1" as="geometry" />
        </mxCell>
        <mxCell id="0ZVAY7hV2r7XPMm9iSAq-29" style="rounded=0;orthogonalLoop=1;jettySize=auto;html=1;entryX=1;entryY=0.3333333333333333;entryDx=0;entryDy=0;entryPerimeter=0;endArrow=none;endFill=0;exitX=0;exitY=0.5;exitDx=0;exitDy=0;" edge="1" parent="1" source="0ZVAY7hV2r7XPMm9iSAq-10" target="0ZVAY7hV2r7XPMm9iSAq-1">
          <mxGeometry relative="1" as="geometry">
            <mxPoint x="140" y="300" as="sourcePoint" />
          </mxGeometry>
        </mxCell>
        <mxCell id="0ZVAY7hV2r7XPMm9iSAq-10" value="회원 가입" style="rounded=1;whiteSpace=wrap;html=1;arcSize=40;fontColor=#000000;fillColor=#ffffc0;strokeColor=#ff0000;" vertex="1" parent="1">
          <mxGeometry x="140" y="290" width="120" height="40" as="geometry" />
        </mxCell>
        <mxCell id="0ZVAY7hV2r7XPMm9iSAq-31" style="edgeStyle=none;rounded=0;orthogonalLoop=1;jettySize=auto;html=1;entryX=1;entryY=0.3333333333333333;entryDx=0;entryDy=0;entryPerimeter=0;endArrow=none;endFill=0;exitX=0;exitY=0.5;exitDx=0;exitDy=0;" edge="1" parent="1" source="0ZVAY7hV2r7XPMm9iSAq-14" target="0ZVAY7hV2r7XPMm9iSAq-1">
          <mxGeometry relative="1" as="geometry" />
        </mxCell>
        <mxCell id="0ZVAY7hV2r7XPMm9iSAq-37" style="edgeStyle=none;rounded=0;orthogonalLoop=1;jettySize=auto;html=1;entryX=0.558;entryY=1.025;entryDx=0;entryDy=0;dashed=1;fontSize=16;fontColor=none;endArrow=classic;endFill=1;exitX=1;exitY=0;exitDx=0;exitDy=0;entryPerimeter=0;" edge="1" parent="1" source="0ZVAY7hV2r7XPMm9iSAq-14" target="0ZVAY7hV2r7XPMm9iSAq-17">
          <mxGeometry relative="1" as="geometry">
            <Array as="points">
              <mxPoint x="260" y="410" />
            </Array>
          </mxGeometry>
        </mxCell>
        <mxCell id="0ZVAY7hV2r7XPMm9iSAq-14" value="게시판 보기" style="rounded=1;whiteSpace=wrap;html=1;arcSize=40;fontColor=#000000;fillColor=#ffffc0;strokeColor=#ff0000;" vertex="1" parent="1">
          <mxGeometry x="140" y="400" width="120" height="40" as="geometry" />
        </mxCell>
        <mxCell id="0ZVAY7hV2r7XPMm9iSAq-32" style="edgeStyle=none;rounded=0;orthogonalLoop=1;jettySize=auto;html=1;entryX=1;entryY=0.3333333333333333;entryDx=0;entryDy=0;entryPerimeter=0;endArrow=none;endFill=0;exitX=0;exitY=0.5;exitDx=0;exitDy=0;" edge="1" parent="1" source="0ZVAY7hV2r7XPMm9iSAq-15" target="0ZVAY7hV2r7XPMm9iSAq-1">
          <mxGeometry relative="1" as="geometry" />
        </mxCell>
        <mxCell id="0ZVAY7hV2r7XPMm9iSAq-40" style="edgeStyle=none;rounded=0;orthogonalLoop=1;jettySize=auto;html=1;dashed=1;fontSize=16;fontColor=none;endArrow=classic;endFill=1;exitX=1;exitY=0.25;exitDx=0;exitDy=0;entryX=0.575;entryY=1.075;entryDx=0;entryDy=0;entryPerimeter=0;" edge="1" parent="1" source="0ZVAY7hV2r7XPMm9iSAq-15" target="0ZVAY7hV2r7XPMm9iSAq-17">
          <mxGeometry relative="1" as="geometry">
            <mxPoint x="320" y="210" as="targetPoint" />
          </mxGeometry>
        </mxCell>
        <mxCell id="0ZVAY7hV2r7XPMm9iSAq-15" value="게시글 보기" style="rounded=1;whiteSpace=wrap;html=1;arcSize=40;fontColor=#000000;fillColor=#ffffc0;strokeColor=#ff0000;" vertex="1" parent="1">
          <mxGeometry x="140" y="520" width="120" height="40" as="geometry" />
        </mxCell>
        <mxCell id="0ZVAY7hV2r7XPMm9iSAq-30" style="rounded=0;orthogonalLoop=1;jettySize=auto;html=1;entryX=1;entryY=0.3333333333333333;entryDx=0;entryDy=0;entryPerimeter=0;endArrow=none;endFill=0;exitX=0;exitY=0.5;exitDx=0;exitDy=0;" edge="1" parent="1" source="0ZVAY7hV2r7XPMm9iSAq-17" target="0ZVAY7hV2r7XPMm9iSAq-1">
          <mxGeometry relative="1" as="geometry" />
        </mxCell>
        <mxCell id="0ZVAY7hV2r7XPMm9iSAq-33" style="edgeStyle=none;rounded=0;orthogonalLoop=1;jettySize=auto;html=1;entryX=0;entryY=0.5;entryDx=0;entryDy=0;endArrow=classic;endFill=1;dashed=1;" edge="1" parent="1" source="0ZVAY7hV2r7XPMm9iSAq-17" target="0ZVAY7hV2r7XPMm9iSAq-18">
          <mxGeometry relative="1" as="geometry" />
        </mxCell>
        <mxCell id="0ZVAY7hV2r7XPMm9iSAq-35" value="&amp;lt;&amp;lt;include&amp;gt;&amp;gt;" style="edgeLabel;html=1;align=center;verticalAlign=middle;resizable=0;points=[];fontSize=16;" vertex="1" connectable="0" parent="0ZVAY7hV2r7XPMm9iSAq-33">
          <mxGeometry relative="1" as="geometry">
            <mxPoint as="offset" />
          </mxGeometry>
        </mxCell>
        <mxCell id="0ZVAY7hV2r7XPMm9iSAq-17" value="회원 로그인" style="rounded=1;whiteSpace=wrap;html=1;arcSize=40;fontColor=#000000;fillColor=#ffffc0;strokeColor=#ff0000;" vertex="1" parent="1">
          <mxGeometry x="230" y="170" width="120" height="40" as="geometry" />
        </mxCell>
        <mxCell id="0ZVAY7hV2r7XPMm9iSAq-51" style="edgeStyle=none;rounded=0;orthogonalLoop=1;jettySize=auto;html=1;entryX=0;entryY=0.5;entryDx=0;entryDy=0;fontSize=16;fontColor=none;endArrow=none;endFill=0;exitX=1;exitY=0.5;exitDx=0;exitDy=0;" edge="1" parent="1" source="0ZVAY7hV2r7XPMm9iSAq-18" target="0ZVAY7hV2r7XPMm9iSAq-49">
          <mxGeometry relative="1" as="geometry" />
        </mxCell>
        <mxCell id="0ZVAY7hV2r7XPMm9iSAq-18" value="인증" style="rounded=1;whiteSpace=wrap;html=1;arcSize=40;fontColor=#000000;fillColor=#ffffc0;strokeColor=#ff0000;" vertex="1" parent="1">
          <mxGeometry x="550" y="170" width="120" height="40" as="geometry" />
        </mxCell>
        <mxCell id="0ZVAY7hV2r7XPMm9iSAq-34" value="&lt;font style=&quot;font-size: 16px;&quot;&gt;&amp;lt;&amp;lt;extend&amp;gt;&amp;gt;&lt;/font&gt;" style="edgeStyle=none;rounded=0;orthogonalLoop=1;jettySize=auto;html=1;entryX=1;entryY=0.5;entryDx=0;entryDy=0;endArrow=classic;endFill=1;exitX=0;exitY=0.5;exitDx=0;exitDy=0;dashed=1;" edge="1" parent="1" source="0ZVAY7hV2r7XPMm9iSAq-19" target="0ZVAY7hV2r7XPMm9iSAq-17">
          <mxGeometry x="-0.1692" y="4" relative="1" as="geometry">
            <mxPoint as="offset" />
          </mxGeometry>
        </mxCell>
        <mxCell id="0ZVAY7hV2r7XPMm9iSAq-19" value="로그인 실패" style="rounded=1;whiteSpace=wrap;html=1;arcSize=40;fontColor=#000000;fillColor=#ffffc0;strokeColor=#ff0000;" vertex="1" parent="1">
          <mxGeometry x="550" y="250" width="120" height="40" as="geometry" />
        </mxCell>
        <mxCell id="0ZVAY7hV2r7XPMm9iSAq-41" style="edgeStyle=none;rounded=0;orthogonalLoop=1;jettySize=auto;html=1;entryX=1;entryY=0.5;entryDx=0;entryDy=0;dashed=1;fontSize=16;fontColor=none;endArrow=classic;endFill=1;exitX=0;exitY=0.5;exitDx=0;exitDy=0;" edge="1" parent="1" source="0ZVAY7hV2r7XPMm9iSAq-20" target="0ZVAY7hV2r7XPMm9iSAq-14">
          <mxGeometry relative="1" as="geometry" />
        </mxCell>
        <mxCell id="0ZVAY7hV2r7XPMm9iSAq-20" value="게시판 정렬" style="rounded=1;whiteSpace=wrap;html=1;arcSize=40;fontColor=#000000;fillColor=#ffffc0;strokeColor=#ff0000;" vertex="1" parent="1">
          <mxGeometry x="354" y="340" width="120" height="40" as="geometry" />
        </mxCell>
        <mxCell id="0ZVAY7hV2r7XPMm9iSAq-42" style="edgeStyle=none;rounded=0;orthogonalLoop=1;jettySize=auto;html=1;entryX=1;entryY=0.5;entryDx=0;entryDy=0;dashed=1;fontSize=16;fontColor=none;endArrow=classic;endFill=1;exitX=0;exitY=0.5;exitDx=0;exitDy=0;" edge="1" parent="1" source="0ZVAY7hV2r7XPMm9iSAq-21" target="0ZVAY7hV2r7XPMm9iSAq-14">
          <mxGeometry relative="1" as="geometry" />
        </mxCell>
        <mxCell id="0ZVAY7hV2r7XPMm9iSAq-21" value="게시판 검색" style="rounded=1;whiteSpace=wrap;html=1;arcSize=40;fontColor=#000000;fillColor=#ffffc0;strokeColor=#ff0000;" vertex="1" parent="1">
          <mxGeometry x="354" y="440" width="120" height="40" as="geometry" />
        </mxCell>
        <mxCell id="0ZVAY7hV2r7XPMm9iSAq-44" style="edgeStyle=none;rounded=0;orthogonalLoop=1;jettySize=auto;html=1;entryX=1;entryY=0.5;entryDx=0;entryDy=0;dashed=1;fontSize=16;fontColor=none;endArrow=classic;endFill=1;" edge="1" parent="1" source="0ZVAY7hV2r7XPMm9iSAq-22" target="0ZVAY7hV2r7XPMm9iSAq-15">
          <mxGeometry relative="1" as="geometry" />
        </mxCell>
        <mxCell id="0ZVAY7hV2r7XPMm9iSAq-22" value="게시글 쓰기,수정,삭제" style="rounded=1;whiteSpace=wrap;html=1;arcSize=40;fontColor=#000000;fillColor=#ffffc0;strokeColor=#ff0000;" vertex="1" parent="1">
          <mxGeometry x="354" y="545" width="120" height="40" as="geometry" />
        </mxCell>
        <mxCell id="0ZVAY7hV2r7XPMm9iSAq-45" style="edgeStyle=none;rounded=0;orthogonalLoop=1;jettySize=auto;html=1;entryX=1;entryY=0.5;entryDx=0;entryDy=0;dashed=1;fontSize=16;fontColor=none;endArrow=classic;endFill=1;" edge="1" parent="1" source="0ZVAY7hV2r7XPMm9iSAq-23" target="0ZVAY7hV2r7XPMm9iSAq-15">
          <mxGeometry relative="1" as="geometry" />
        </mxCell>
        <mxCell id="0ZVAY7hV2r7XPMm9iSAq-23" value="댓글 보기,쓰기,&lt;br&gt;삭제,수정" style="rounded=1;whiteSpace=wrap;html=1;arcSize=40;fontColor=#000000;fillColor=#ffffc0;strokeColor=#ff0000;" vertex="1" parent="1">
          <mxGeometry x="354" y="650" width="120" height="40" as="geometry" />
        </mxCell>
        <mxCell id="0ZVAY7hV2r7XPMm9iSAq-52" style="edgeStyle=none;rounded=0;orthogonalLoop=1;jettySize=auto;html=1;entryX=1;entryY=0.5;entryDx=0;entryDy=0;fontSize=16;fontColor=none;endArrow=classic;endFill=1;exitX=0;exitY=0.5;exitDx=0;exitDy=0;" edge="1" parent="1" source="0ZVAY7hV2r7XPMm9iSAq-49" target="0ZVAY7hV2r7XPMm9iSAq-14">
          <mxGeometry relative="1" as="geometry">
            <Array as="points">
              <mxPoint x="560" y="390" />
            </Array>
          </mxGeometry>
        </mxCell>
        <mxCell id="0ZVAY7hV2r7XPMm9iSAq-53" style="edgeStyle=none;rounded=0;orthogonalLoop=1;jettySize=auto;html=1;entryX=1;entryY=0.5;entryDx=0;entryDy=0;fontSize=16;fontColor=none;endArrow=classic;endFill=1;exitX=0;exitY=0.5;exitDx=0;exitDy=0;" edge="1" parent="1" source="0ZVAY7hV2r7XPMm9iSAq-49" target="0ZVAY7hV2r7XPMm9iSAq-15">
          <mxGeometry relative="1" as="geometry">
            <Array as="points">
              <mxPoint x="580" y="470" />
            </Array>
          </mxGeometry>
        </mxCell>
        <mxCell id="0ZVAY7hV2r7XPMm9iSAq-55" style="edgeStyle=none;rounded=0;orthogonalLoop=1;jettySize=auto;html=1;entryX=1;entryY=0.5;entryDx=0;entryDy=0;fontSize=16;fontColor=none;endArrow=none;endFill=0;exitX=0;exitY=0.5;exitDx=0;exitDy=0;" edge="1" parent="1" source="0ZVAY7hV2r7XPMm9iSAq-49" target="0ZVAY7hV2r7XPMm9iSAq-22">
          <mxGeometry relative="1" as="geometry" />
        </mxCell>
        <mxCell id="0ZVAY7hV2r7XPMm9iSAq-56" style="edgeStyle=none;rounded=0;orthogonalLoop=1;jettySize=auto;html=1;entryX=1;entryY=0.5;entryDx=0;entryDy=0;fontSize=16;fontColor=none;endArrow=none;endFill=0;exitX=0;exitY=0.5;exitDx=0;exitDy=0;" edge="1" parent="1" source="0ZVAY7hV2r7XPMm9iSAq-49" target="0ZVAY7hV2r7XPMm9iSAq-23">
          <mxGeometry relative="1" as="geometry" />
        </mxCell>
        <mxCell id="0ZVAY7hV2r7XPMm9iSAq-49" value="DB" style="html=1;dropTarget=0;fontSize=16;fontColor=none;" vertex="1" parent="1">
          <mxGeometry x="850" y="240" width="80" height="80" as="geometry" />
        </mxCell>
      </root>
    </mxGraphModel>
  </diagram>
</mxfile>
